<svg width="26" height="24" viewBox="0 0 26 24" fill="none" xmlns="http://www.w3.org/2000/svg">
<path d="M13.1374 5.86255C13.3124 5.86255 13.3874 5.93755 13.3874 5.93755V10.6375C13.3874 10.6625 13.2874 10.7375 13.1374 10.7375H13.1124C12.9624 10.7375 12.8874 10.6625 12.8624 10.6625V5.93755C12.8874 5.91255 12.9874 5.86255 13.1374 5.86255Z" fill="#FF0000" stroke="#FF0000" stroke-width="1.33333" stroke-miterlimit="10"/>
<path d="M13.0124 18.1376C10.1124 18.1376 7.73743 15.7626 7.73743 12.8626C7.73743 10.7876 8.81243 8.98765 10.5374 8.11265C10.5624 8.11265 10.5874 8.08765 10.6124 8.08765C10.6374 8.08765 10.6374 8.08765 10.6624 8.08765C10.7124 8.11265 10.7374 8.13765 10.7624 8.18765C10.7874 8.23765 10.7874 8.28765 10.7624 8.31265C10.7374 8.36265 10.7124 8.38765 10.6624 8.41265C9.06243 9.21265 8.06243 10.9126 8.06243 12.8376C8.06243 15.5626 10.2624 17.7626 12.9874 17.7626C15.7124 17.7626 17.9124 15.5626 17.9124 12.8376C17.9124 10.9126 16.9124 9.23765 15.3374 8.41265C15.2624 8.36265 15.2124 8.26265 15.2624 8.18765C15.3124 8.11265 15.4124 8.06265 15.4874 8.11265C17.1874 8.98765 18.2624 10.7876 18.2624 12.8376C18.2874 15.7876 15.9124 18.1376 13.0124 18.1376Z" fill="#FF0000" stroke="#FF0000" stroke-width="1.33333" stroke-miterlimit="10"/>
</svg>
